<mxfile host="app.diagrams.net" modified="2024-06-24T06:52:27.004Z" agent="Mozilla/5.0 (Macintosh; Intel Mac OS X 10_15_7) AppleWebKit/537.36 (KHTML, like Gecko) Chrome/126.0.0.0 Safari/537.36" etag="7F6fd3X3NUOo14Mymgdz" version="24.6.2" type="github">
  <diagram name="第 1 页" id="8wVQgNOy04hZlfQwRdIl">
    <mxGraphModel dx="921" dy="679" grid="1" gridSize="10" guides="1" tooltips="1" connect="1" arrows="1" fold="1" page="1" pageScale="1" pageWidth="827" pageHeight="1169" math="0" shadow="0">
      <root>
        <mxCell id="0" />
        <mxCell id="1" parent="0" />
        <mxCell id="7q0GkW7Tj6wg4lrRBr_C-61" value="" style="rounded=0;whiteSpace=wrap;html=1;" vertex="1" parent="1">
          <mxGeometry x="40" y="1290" width="720" height="420" as="geometry" />
        </mxCell>
        <mxCell id="7q0GkW7Tj6wg4lrRBr_C-60" value="" style="rounded=0;whiteSpace=wrap;html=1;" vertex="1" parent="1">
          <mxGeometry x="30" y="580" width="760" height="460" as="geometry" />
        </mxCell>
        <mxCell id="7q0GkW7Tj6wg4lrRBr_C-1" value="" style="rounded=1;whiteSpace=wrap;html=1;" vertex="1" parent="1">
          <mxGeometry x="50" y="620" width="690" height="290" as="geometry" />
        </mxCell>
        <mxCell id="7q0GkW7Tj6wg4lrRBr_C-2" value="" style="rounded=0;whiteSpace=wrap;html=1;fillColor=none;dashed=1;strokeWidth=2;" vertex="1" parent="1">
          <mxGeometry x="210" y="670" width="380" height="190" as="geometry" />
        </mxCell>
        <mxCell id="7q0GkW7Tj6wg4lrRBr_C-3" value="&lt;font style=&quot;font-size: 15px;&quot;&gt;主要&lt;/font&gt;&lt;div&gt;&lt;font style=&quot;font-size: 15px;&quot;&gt;策略&lt;/font&gt;&lt;/div&gt;" style="rounded=1;whiteSpace=wrap;html=1;fillColor=#f5f5f5;fontColor=#333333;strokeColor=#666666;fontStyle=1;fontSize=15;" vertex="1" parent="1">
          <mxGeometry x="20" y="80" width="50" height="100" as="geometry" />
        </mxCell>
        <mxCell id="7q0GkW7Tj6wg4lrRBr_C-4" value="&lt;font style=&quot;font-size: 15px;&quot;&gt;影响&lt;/font&gt;&lt;div&gt;&lt;font style=&quot;font-size: 15px;&quot;&gt;因素&lt;/font&gt;&lt;/div&gt;" style="rounded=1;whiteSpace=wrap;html=1;fillColor=#f5f5f5;fontColor=#333333;strokeColor=#666666;fontStyle=1;fontSize=15;" vertex="1" parent="1">
          <mxGeometry x="20" y="230" width="50" height="90" as="geometry" />
        </mxCell>
        <mxCell id="7q0GkW7Tj6wg4lrRBr_C-5" value="&lt;font style=&quot;font-size: 15px;&quot;&gt;儿童&lt;/font&gt;&lt;div&gt;&lt;font style=&quot;font-size: 15px;&quot;&gt;特征&lt;/font&gt;&lt;/div&gt;" style="rounded=1;whiteSpace=wrap;html=1;fillColor=#f5f5f5;fontColor=#333333;strokeColor=#666666;fontStyle=1;fontSize=15;" vertex="1" parent="1">
          <mxGeometry x="20" y="370" width="50" height="90" as="geometry" />
        </mxCell>
        <mxCell id="7q0GkW7Tj6wg4lrRBr_C-6" value="&lt;font style=&quot;font-size: 18px;&quot;&gt;&lt;b&gt;儿童友好社区与儿童友好城市建设策略&lt;/b&gt;&lt;/font&gt;" style="rounded=1;whiteSpace=wrap;html=1;fillColor=#dae8fc;strokeColor=#6c8ebf;" vertex="1" parent="1">
          <mxGeometry x="20" y="470" width="590" height="40" as="geometry" />
        </mxCell>
        <mxCell id="7q0GkW7Tj6wg4lrRBr_C-7" value="&lt;font style=&quot;font-size: 14px;&quot;&gt;隔代抚育特征突出&lt;/font&gt;" style="rounded=1;whiteSpace=wrap;html=1;fillColor=#dae8fc;strokeColor=#6c8ebf;fontSize=14;" vertex="1" parent="1">
          <mxGeometry x="80" y="420" width="170" height="40" as="geometry" />
        </mxCell>
        <mxCell id="7q0GkW7Tj6wg4lrRBr_C-8" value="&lt;font style=&quot;font-size: 14px;&quot;&gt;室外活动强度低&lt;/font&gt;" style="rounded=1;whiteSpace=wrap;html=1;fillColor=#dae8fc;strokeColor=#6c8ebf;fontSize=14;" vertex="1" parent="1">
          <mxGeometry x="260" y="420" width="170" height="40" as="geometry" />
        </mxCell>
        <mxCell id="7q0GkW7Tj6wg4lrRBr_C-9" value="&lt;font style=&quot;font-size: 14px;&quot;&gt;儿童独立性活动比例低&lt;/font&gt;" style="rounded=1;whiteSpace=wrap;html=1;fillColor=#dae8fc;strokeColor=#6c8ebf;fontSize=14;" vertex="1" parent="1">
          <mxGeometry x="440" y="420" width="170" height="40" as="geometry" />
        </mxCell>
        <mxCell id="7q0GkW7Tj6wg4lrRBr_C-10" value="&lt;font style=&quot;font-size: 15px; font-weight: normal;&quot;&gt;游戏冒险、渴望自然、模仿学习、社会交往的需求&lt;/font&gt;" style="rounded=1;whiteSpace=wrap;html=1;fontStyle=1;fontSize=15;" vertex="1" parent="1">
          <mxGeometry x="80" y="370" width="530" height="40" as="geometry" />
        </mxCell>
        <mxCell id="7q0GkW7Tj6wg4lrRBr_C-11" value="&lt;font style=&quot;font-size: 15px; font-weight: normal;&quot;&gt;个体因素(性别、体重、年龄、生活习惯及技能、情绪感知等)&lt;/font&gt;&lt;div&gt;&lt;font style=&quot;font-size: 15px; font-weight: normal;&quot;&gt;社会因素(家庭、学校、朋友、政策等)&lt;/font&gt;&lt;/div&gt;&lt;div&gt;&lt;font style=&quot;font-size: 15px; font-weight: normal;&quot;&gt;建成环境因素(公共设施、交通环境、土地混合利用、居住密度等)&lt;/font&gt;&lt;/div&gt;" style="rounded=1;whiteSpace=wrap;html=1;fontStyle=1;fontSize=15;" vertex="1" parent="1">
          <mxGeometry x="80" y="230" width="530" height="90" as="geometry" />
        </mxCell>
        <mxCell id="7q0GkW7Tj6wg4lrRBr_C-12" value="" style="shape=flexArrow;endArrow=classic;html=1;rounded=0;endWidth=12;endSize=5.67;fillColor=#B3B3B3;strokeColor=none;" edge="1" parent="1">
          <mxGeometry width="50" height="50" relative="1" as="geometry">
            <mxPoint x="340" y="360" as="sourcePoint" />
            <mxPoint x="340" y="330" as="targetPoint" />
          </mxGeometry>
        </mxCell>
        <mxCell id="7q0GkW7Tj6wg4lrRBr_C-13" value="" style="shape=flexArrow;endArrow=classic;html=1;rounded=0;endWidth=12;endSize=5.67;fillColor=#B3B3B3;strokeColor=none;" edge="1" parent="1">
          <mxGeometry width="50" height="50" relative="1" as="geometry">
            <mxPoint x="344.5" y="220" as="sourcePoint" />
            <mxPoint x="344.5" y="190" as="targetPoint" />
          </mxGeometry>
        </mxCell>
        <mxCell id="7q0GkW7Tj6wg4lrRBr_C-14" value="&lt;font style=&quot;font-size: 14px;&quot;&gt;&lt;b&gt;明确不同层级儿童友好空间重点&lt;/b&gt;&lt;/font&gt;&lt;div style=&quot;text-align: left;&quot;&gt;&lt;font style=&quot;font-size: 14px;&quot;&gt;&lt;b&gt;区域层面：&lt;/b&gt;引导儿童在生态空间中的活动&lt;/font&gt;&lt;/div&gt;&lt;div style=&quot;text-align: left;&quot;&gt;&lt;font style=&quot;font-size: 14px;&quot;&gt;&lt;b&gt;城市层面：&lt;/b&gt;落实绿地广场空间布局，通过促进慢行友好，提升用地的趣味和丰富度&lt;/font&gt;&lt;/div&gt;&lt;div style=&quot;text-align: left;&quot;&gt;&lt;font style=&quot;font-size: 14px;&quot;&gt;&lt;b&gt;社区层面：&lt;/b&gt;落实服务设施，15分钟儿童生活圈&lt;/font&gt;&lt;/div&gt;" style="rounded=1;whiteSpace=wrap;html=1;fillColor=#dae8fc;strokeColor=#6c8ebf;fontSize=14;" vertex="1" parent="1">
          <mxGeometry x="80" y="80" width="310" height="100" as="geometry" />
        </mxCell>
        <mxCell id="7q0GkW7Tj6wg4lrRBr_C-15" value="&lt;b&gt;建设儿童友好空间场所&lt;/b&gt;&lt;div&gt;关爱成长的公共服务设施&lt;/div&gt;&lt;div&gt;自然有趣的公共游憩场地&lt;/div&gt;&lt;div&gt;安全友好的交通出行环境&lt;br&gt;&lt;/div&gt;" style="rounded=1;whiteSpace=wrap;html=1;fillColor=#dae8fc;strokeColor=#6c8ebf;fontSize=14;" vertex="1" parent="1">
          <mxGeometry x="400" y="80" width="210" height="100" as="geometry" />
        </mxCell>
        <mxCell id="7q0GkW7Tj6wg4lrRBr_C-16" value="&lt;font style=&quot;font-size: 18px; font-weight: normal;&quot;&gt;家庭&lt;/font&gt;" style="rounded=1;whiteSpace=wrap;html=1;fontStyle=1;fontSize=18;strokeWidth=4;" vertex="1" parent="1">
          <mxGeometry x="250" y="700" width="80" height="40" as="geometry" />
        </mxCell>
        <mxCell id="7q0GkW7Tj6wg4lrRBr_C-17" value="&lt;font style=&quot;font-size: 18px; font-weight: normal;&quot;&gt;同伴&lt;/font&gt;" style="rounded=1;whiteSpace=wrap;html=1;fontStyle=1;fontSize=18;strokeWidth=4;" vertex="1" parent="1">
          <mxGeometry x="470" y="700" width="80" height="40" as="geometry" />
        </mxCell>
        <mxCell id="7q0GkW7Tj6wg4lrRBr_C-18" value="&lt;font style=&quot;font-size: 18px; font-weight: normal;&quot;&gt;网络&lt;/font&gt;" style="rounded=1;whiteSpace=wrap;html=1;fontStyle=1;fontSize=18;strokeWidth=4;" vertex="1" parent="1">
          <mxGeometry x="470" y="810" width="80" height="40" as="geometry" />
        </mxCell>
        <mxCell id="7q0GkW7Tj6wg4lrRBr_C-19" value="&lt;font style=&quot;font-size: 18px; font-weight: normal;&quot;&gt;学校&lt;/font&gt;" style="rounded=1;whiteSpace=wrap;html=1;fontStyle=1;fontSize=18;strokeWidth=4;" vertex="1" parent="1">
          <mxGeometry x="250" y="810" width="80" height="40" as="geometry" />
        </mxCell>
        <mxCell id="7q0GkW7Tj6wg4lrRBr_C-20" value="&lt;font size=&quot;1&quot; style=&quot;&quot;&gt;&lt;b style=&quot;font-size: 19px;&quot;&gt;人&lt;/b&gt;&lt;/font&gt;" style="ellipse;whiteSpace=wrap;html=1;aspect=fixed;" vertex="1" parent="1">
          <mxGeometry x="380" y="755" width="50" height="50" as="geometry" />
        </mxCell>
        <mxCell id="7q0GkW7Tj6wg4lrRBr_C-21" value="" style="endArrow=classic;startArrow=classic;html=1;rounded=0;exitX=1;exitY=0.5;exitDx=0;exitDy=0;entryX=0;entryY=0.5;entryDx=0;entryDy=0;" edge="1" parent="1" source="7q0GkW7Tj6wg4lrRBr_C-16" target="7q0GkW7Tj6wg4lrRBr_C-17">
          <mxGeometry width="50" height="50" relative="1" as="geometry">
            <mxPoint x="440" y="720" as="sourcePoint" />
            <mxPoint x="490" y="670" as="targetPoint" />
          </mxGeometry>
        </mxCell>
        <mxCell id="7q0GkW7Tj6wg4lrRBr_C-22" value="" style="endArrow=classic;startArrow=classic;html=1;rounded=0;exitX=1;exitY=0.5;exitDx=0;exitDy=0;entryX=0;entryY=0.5;entryDx=0;entryDy=0;" edge="1" parent="1">
          <mxGeometry width="50" height="50" relative="1" as="geometry">
            <mxPoint x="330" y="829.29" as="sourcePoint" />
            <mxPoint x="470" y="829.29" as="targetPoint" />
          </mxGeometry>
        </mxCell>
        <mxCell id="7q0GkW7Tj6wg4lrRBr_C-23" value="" style="endArrow=classic;startArrow=classic;html=1;rounded=0;exitX=0.5;exitY=1;exitDx=0;exitDy=0;" edge="1" parent="1" source="7q0GkW7Tj6wg4lrRBr_C-16" target="7q0GkW7Tj6wg4lrRBr_C-19">
          <mxGeometry width="50" height="50" relative="1" as="geometry">
            <mxPoint x="340" y="839.29" as="sourcePoint" />
            <mxPoint x="480" y="839.29" as="targetPoint" />
          </mxGeometry>
        </mxCell>
        <mxCell id="7q0GkW7Tj6wg4lrRBr_C-24" value="" style="endArrow=classic;startArrow=classic;html=1;rounded=0;exitX=0.5;exitY=1;exitDx=0;exitDy=0;" edge="1" parent="1">
          <mxGeometry width="50" height="50" relative="1" as="geometry">
            <mxPoint x="510" y="740" as="sourcePoint" />
            <mxPoint x="510" y="810" as="targetPoint" />
          </mxGeometry>
        </mxCell>
        <mxCell id="7q0GkW7Tj6wg4lrRBr_C-25" value="" style="endArrow=classic;startArrow=classic;html=1;rounded=0;entryX=-0.114;entryY=0.243;entryDx=0;entryDy=0;entryPerimeter=0;" edge="1" parent="1" target="7q0GkW7Tj6wg4lrRBr_C-20">
          <mxGeometry width="50" height="50" relative="1" as="geometry">
            <mxPoint x="340" y="750" as="sourcePoint" />
            <mxPoint x="370" y="780" as="targetPoint" />
          </mxGeometry>
        </mxCell>
        <mxCell id="7q0GkW7Tj6wg4lrRBr_C-26" value="" style="endArrow=classic;startArrow=classic;html=1;rounded=0;entryX=-0.114;entryY=0.243;entryDx=0;entryDy=0;entryPerimeter=0;" edge="1" parent="1">
          <mxGeometry width="50" height="50" relative="1" as="geometry">
            <mxPoint x="436" y="793" as="sourcePoint" />
            <mxPoint x="470" y="810" as="targetPoint" />
          </mxGeometry>
        </mxCell>
        <mxCell id="7q0GkW7Tj6wg4lrRBr_C-27" value="" style="endArrow=classic;startArrow=classic;html=1;rounded=0;entryX=-0.114;entryY=0.243;entryDx=0;entryDy=0;entryPerimeter=0;" edge="1" parent="1">
          <mxGeometry width="50" height="50" relative="1" as="geometry">
            <mxPoint x="376" y="790" as="sourcePoint" />
            <mxPoint x="340" y="817" as="targetPoint" />
          </mxGeometry>
        </mxCell>
        <mxCell id="7q0GkW7Tj6wg4lrRBr_C-28" value="" style="endArrow=classic;startArrow=classic;html=1;rounded=0;entryX=-0.114;entryY=0.243;entryDx=0;entryDy=0;entryPerimeter=0;" edge="1" parent="1">
          <mxGeometry width="50" height="50" relative="1" as="geometry">
            <mxPoint x="470" y="746" as="sourcePoint" />
            <mxPoint x="434" y="773" as="targetPoint" />
          </mxGeometry>
        </mxCell>
        <mxCell id="7q0GkW7Tj6wg4lrRBr_C-29" value="&lt;font style=&quot;font-size: 17px;&quot;&gt;父母工作单位&lt;/font&gt;" style="rounded=0;whiteSpace=wrap;html=1;fillColor=none;" vertex="1" parent="1">
          <mxGeometry x="70" y="670" width="120" height="50" as="geometry" />
        </mxCell>
        <mxCell id="7q0GkW7Tj6wg4lrRBr_C-30" value="&lt;font style=&quot;font-size: 17px;&quot;&gt;学校管理部门&lt;/font&gt;" style="rounded=0;whiteSpace=wrap;html=1;fillColor=none;" vertex="1" parent="1">
          <mxGeometry x="70" y="810" width="120" height="50" as="geometry" />
        </mxCell>
        <mxCell id="7q0GkW7Tj6wg4lrRBr_C-31" value="&lt;font style=&quot;font-size: 17px;&quot;&gt;网络类型&lt;/font&gt;" style="rounded=0;whiteSpace=wrap;html=1;fillColor=none;" vertex="1" parent="1">
          <mxGeometry x="600" y="805" width="120" height="50" as="geometry" />
        </mxCell>
        <mxCell id="7q0GkW7Tj6wg4lrRBr_C-32" value="&lt;font style=&quot;font-size: 17px;&quot;&gt;邻里社区&lt;/font&gt;" style="rounded=0;whiteSpace=wrap;html=1;fillColor=none;" vertex="1" parent="1">
          <mxGeometry x="600" y="670" width="120" height="50" as="geometry" />
        </mxCell>
        <mxCell id="7q0GkW7Tj6wg4lrRBr_C-33" value="" style="endArrow=classic;html=1;rounded=0;entryX=1;entryY=0.5;entryDx=0;entryDy=0;exitX=0;exitY=0.25;exitDx=0;exitDy=0;strokeColor=none;" edge="1" parent="1" source="7q0GkW7Tj6wg4lrRBr_C-16" target="7q0GkW7Tj6wg4lrRBr_C-29">
          <mxGeometry width="50" height="50" relative="1" as="geometry">
            <mxPoint x="330" y="730" as="sourcePoint" />
            <mxPoint x="380" y="680" as="targetPoint" />
          </mxGeometry>
        </mxCell>
        <mxCell id="7q0GkW7Tj6wg4lrRBr_C-34" value="" style="endArrow=classic;html=1;rounded=0;entryX=0;entryY=0.25;entryDx=0;entryDy=0;exitX=1;exitY=0.25;exitDx=0;exitDy=0;" edge="1" parent="1" source="7q0GkW7Tj6wg4lrRBr_C-29" target="7q0GkW7Tj6wg4lrRBr_C-16">
          <mxGeometry width="50" height="50" relative="1" as="geometry">
            <mxPoint x="210" y="1005" as="sourcePoint" />
            <mxPoint x="150" y="990" as="targetPoint" />
          </mxGeometry>
        </mxCell>
        <mxCell id="7q0GkW7Tj6wg4lrRBr_C-35" value="" style="endArrow=classic;html=1;rounded=0;entryX=0;entryY=0.5;entryDx=0;entryDy=0;exitX=1;exitY=0.75;exitDx=0;exitDy=0;" edge="1" parent="1" source="7q0GkW7Tj6wg4lrRBr_C-30" target="7q0GkW7Tj6wg4lrRBr_C-19">
          <mxGeometry width="50" height="50" relative="1" as="geometry">
            <mxPoint x="200" y="890" as="sourcePoint" />
            <mxPoint x="260" y="917" as="targetPoint" />
          </mxGeometry>
        </mxCell>
        <mxCell id="7q0GkW7Tj6wg4lrRBr_C-36" value="" style="endArrow=classic;html=1;rounded=0;entryX=1;entryY=0.5;entryDx=0;entryDy=0;exitX=0;exitY=0.5;exitDx=0;exitDy=0;" edge="1" parent="1" source="7q0GkW7Tj6wg4lrRBr_C-32" target="7q0GkW7Tj6wg4lrRBr_C-17">
          <mxGeometry width="50" height="50" relative="1" as="geometry">
            <mxPoint x="285" y="938" as="sourcePoint" />
            <mxPoint x="345" y="920" as="targetPoint" />
          </mxGeometry>
        </mxCell>
        <mxCell id="7q0GkW7Tj6wg4lrRBr_C-37" value="" style="endArrow=classic;html=1;rounded=0;entryX=1;entryY=0.5;entryDx=0;entryDy=0;exitX=0;exitY=0.75;exitDx=0;exitDy=0;" edge="1" parent="1" source="7q0GkW7Tj6wg4lrRBr_C-31" target="7q0GkW7Tj6wg4lrRBr_C-18">
          <mxGeometry width="50" height="50" relative="1" as="geometry">
            <mxPoint x="610" y="705" as="sourcePoint" />
            <mxPoint x="560" y="730" as="targetPoint" />
          </mxGeometry>
        </mxCell>
        <mxCell id="7q0GkW7Tj6wg4lrRBr_C-38" value="&lt;font style=&quot;font-size: 19px;&quot;&gt;宏系统-文化环境&lt;/font&gt;" style="text;html=1;align=center;verticalAlign=middle;whiteSpace=wrap;rounded=0;" vertex="1" parent="1">
          <mxGeometry x="316" y="623" width="154" height="30" as="geometry" />
        </mxCell>
        <mxCell id="7q0GkW7Tj6wg4lrRBr_C-39" value="" style="rounded=1;whiteSpace=wrap;html=1;" vertex="1" parent="1">
          <mxGeometry x="380" y="925" width="70" height="35" as="geometry" />
        </mxCell>
        <mxCell id="7q0GkW7Tj6wg4lrRBr_C-40" value="" style="rounded=1;whiteSpace=wrap;html=1;fontStyle=1;fontSize=18;strokeWidth=4;" vertex="1" parent="1">
          <mxGeometry x="90" y="925" width="80" height="40" as="geometry" />
        </mxCell>
        <mxCell id="7q0GkW7Tj6wg4lrRBr_C-41" value="&lt;font style=&quot;font-size: 16px;&quot;&gt;微系统&lt;/font&gt;" style="text;html=1;align=center;verticalAlign=middle;resizable=0;points=[];autosize=1;strokeColor=none;fillColor=none;" vertex="1" parent="1">
          <mxGeometry x="95" y="980" width="70" height="30" as="geometry" />
        </mxCell>
        <mxCell id="7q0GkW7Tj6wg4lrRBr_C-42" value="" style="rounded=0;whiteSpace=wrap;html=1;fillColor=none;dashed=1;strokeWidth=2;" vertex="1" parent="1">
          <mxGeometry x="190" y="927" width="70" height="35" as="geometry" />
        </mxCell>
        <mxCell id="7q0GkW7Tj6wg4lrRBr_C-43" value="&lt;font style=&quot;font-size: 16px;&quot;&gt;中系统&lt;/font&gt;" style="text;html=1;align=center;verticalAlign=middle;resizable=0;points=[];autosize=1;strokeColor=none;fillColor=none;" vertex="1" parent="1">
          <mxGeometry x="190" y="980" width="70" height="30" as="geometry" />
        </mxCell>
        <mxCell id="7q0GkW7Tj6wg4lrRBr_C-44" value="" style="rounded=0;whiteSpace=wrap;html=1;fillColor=none;" vertex="1" parent="1">
          <mxGeometry x="280" y="925" width="80" height="35" as="geometry" />
        </mxCell>
        <mxCell id="7q0GkW7Tj6wg4lrRBr_C-45" value="&lt;font style=&quot;font-size: 16px;&quot;&gt;外系统&lt;/font&gt;" style="text;html=1;align=center;verticalAlign=middle;resizable=0;points=[];autosize=1;strokeColor=none;fillColor=none;" vertex="1" parent="1">
          <mxGeometry x="285" y="980" width="70" height="30" as="geometry" />
        </mxCell>
        <mxCell id="7q0GkW7Tj6wg4lrRBr_C-46" value="&lt;font style=&quot;font-size: 16px;&quot;&gt;宏系统&lt;/font&gt;" style="text;html=1;align=center;verticalAlign=middle;resizable=0;points=[];autosize=1;strokeColor=none;fillColor=none;" vertex="1" parent="1">
          <mxGeometry x="380" y="980" width="70" height="30" as="geometry" />
        </mxCell>
        <mxCell id="7q0GkW7Tj6wg4lrRBr_C-47" value="&lt;p class=&quot;MsoNormal&quot; style=&quot;margin: 0pt 0pt 0.0001pt; text-align: justify; font-family: 等线; font-size: 19px;&quot;&gt;&lt;b style=&quot;font-size: 19px;&quot;&gt;&lt;span style=&quot;font-family: 宋体; font-size: 19px;&quot;&gt;“&lt;/span&gt;&lt;/b&gt;&lt;b style=&quot;font-size: 19px;&quot;&gt;&lt;span style=&quot;font-family: 宋体; font-size: 19px;&quot;&gt;&lt;font face=&quot;宋体&quot; style=&quot;font-size: 19px;&quot;&gt;物理&lt;/font&gt;&lt;font face=&quot;宋体&quot; style=&quot;font-size: 19px;&quot;&gt;-&lt;/font&gt;&lt;/span&gt;&lt;/b&gt;&lt;b style=&quot;font-size: 19px;&quot;&gt;&lt;span style=&quot;font-family: 宋体; font-size: 19px;&quot;&gt;生物&lt;/span&gt;&lt;/b&gt;&lt;b style=&quot;font-size: 19px;&quot;&gt;&lt;span style=&quot;font-family: 宋体; font-size: 19px;&quot;&gt;-&lt;/span&gt;&lt;/b&gt;&lt;b style=&quot;font-size: 19px;&quot;&gt;&lt;span style=&quot;font-family: 宋体; font-size: 19px;&quot;&gt;心理&lt;/span&gt;&lt;/b&gt;&lt;b style=&quot;font-size: 19px;&quot;&gt;&lt;span style=&quot;font-family: 宋体; font-size: 19px;&quot;&gt;-&lt;/span&gt;&lt;/b&gt;&lt;b style=&quot;font-size: 19px;&quot;&gt;&lt;span style=&quot;font-family: 宋体; font-size: 19px;&quot;&gt;&lt;font face=&quot;宋体&quot; style=&quot;font-size: 19px;&quot;&gt;社会&lt;/font&gt;&lt;font face=&quot;宋体&quot; style=&quot;font-size: 19px;&quot;&gt;”模型&lt;/font&gt;&lt;/span&gt;&lt;/b&gt;&lt;/p&gt;" style="rounded=1;whiteSpace=wrap;html=1;fillColor=none;strokeColor=none;fontSize=19;" vertex="1" parent="1">
          <mxGeometry x="129" y="1230" width="471" height="40" as="geometry" />
        </mxCell>
        <mxCell id="7q0GkW7Tj6wg4lrRBr_C-48" value="社会" style="ellipse;whiteSpace=wrap;html=1;aspect=fixed;fillColor=none;fontSize=24;" vertex="1" parent="1">
          <mxGeometry x="361" y="1450" width="170" height="170" as="geometry" />
        </mxCell>
        <mxCell id="7q0GkW7Tj6wg4lrRBr_C-49" value="心理" style="ellipse;whiteSpace=wrap;html=1;aspect=fixed;fillColor=none;fontSize=24;" vertex="1" parent="1">
          <mxGeometry x="361" y="1340" width="170" height="170" as="geometry" />
        </mxCell>
        <mxCell id="7q0GkW7Tj6wg4lrRBr_C-50" value="&lt;div style=&quot;font-size: 17px;&quot;&gt;&lt;ul&gt;&lt;li&gt;&lt;font style=&quot;font-size: 17px;&quot;&gt;身体疾病&lt;/font&gt;&lt;/li&gt;&lt;li&gt;&lt;font style=&quot;font-size: 17px;&quot;&gt;遗传倾向&lt;/font&gt;&lt;/li&gt;&lt;li&gt;&lt;font style=&quot;font-size: 17px;&quot;&gt;性别&lt;/font&gt;&lt;/li&gt;&lt;li&gt;内分泌水平&lt;/li&gt;&lt;li&gt;&lt;font style=&quot;font-size: 17px;&quot;&gt;药物&lt;/font&gt;&lt;/li&gt;&lt;li&gt;&lt;font style=&quot;font-size: 17px;&quot;&gt;...&lt;/font&gt;&lt;/li&gt;&lt;/ul&gt;&lt;/div&gt;" style="rounded=0;whiteSpace=wrap;html=1;align=left;" vertex="1" parent="1">
          <mxGeometry x="60" y="1530" width="140" height="140" as="geometry" />
        </mxCell>
        <mxCell id="7q0GkW7Tj6wg4lrRBr_C-51" value="&lt;font style=&quot;font-size: 24px;&quot;&gt;物理&lt;/font&gt;" style="ellipse;whiteSpace=wrap;html=1;aspect=fixed;fillColor=none;" vertex="1" parent="1">
          <mxGeometry x="230" y="1340" width="170" height="170" as="geometry" />
        </mxCell>
        <mxCell id="7q0GkW7Tj6wg4lrRBr_C-52" value="生物" style="ellipse;whiteSpace=wrap;html=1;aspect=fixed;fillColor=none;fontSize=24;" vertex="1" parent="1">
          <mxGeometry x="230" y="1450" width="170" height="170" as="geometry" />
        </mxCell>
        <mxCell id="7q0GkW7Tj6wg4lrRBr_C-53" value="" style="endArrow=classic;html=1;rounded=0;entryX=0.99;entryY=0.439;entryDx=0;entryDy=0;exitX=0;exitY=0.5;exitDx=0;exitDy=0;entryPerimeter=0;" edge="1" parent="1" source="7q0GkW7Tj6wg4lrRBr_C-52" target="7q0GkW7Tj6wg4lrRBr_C-50">
          <mxGeometry width="50" height="50" relative="1" as="geometry">
            <mxPoint x="150" y="1270" as="sourcePoint" />
            <mxPoint x="210" y="1297" as="targetPoint" />
          </mxGeometry>
        </mxCell>
        <mxCell id="7q0GkW7Tj6wg4lrRBr_C-54" value="&lt;div style=&quot;&quot;&gt;&lt;ul style=&quot;&quot;&gt;&lt;li style=&quot;&quot;&gt;&lt;span style=&quot;font-size: 17px; background-color: initial;&quot;&gt;社会支持&lt;/span&gt;&lt;/li&gt;&lt;li style=&quot;&quot;&gt;&lt;span style=&quot;font-size: 17px;&quot;&gt;家庭养育方式&lt;/span&gt;&lt;/li&gt;&lt;li style=&quot;&quot;&gt;&lt;span style=&quot;font-size: 17px;&quot;&gt;人际交往&lt;/span&gt;&lt;/li&gt;&lt;li style=&quot;&quot;&gt;&lt;span style=&quot;font-size: 17px; background-color: initial;&quot;&gt;健康行为&lt;/span&gt;&lt;br&gt;&lt;/li&gt;&lt;li style=&quot;&quot;&gt;&lt;span style=&quot;font-size: 17px;&quot;&gt;归属感&lt;/span&gt;&lt;/li&gt;&lt;li style=&quot;&quot;&gt;&lt;span style=&quot;font-size: 17px;&quot;&gt;价值感&lt;/span&gt;&lt;/li&gt;&lt;li style=&quot;&quot;&gt;&lt;span style=&quot;font-size: 17px;&quot;&gt;...&lt;/span&gt;&lt;/li&gt;&lt;/ul&gt;&lt;/div&gt;" style="rounded=0;whiteSpace=wrap;html=1;align=left;" vertex="1" parent="1">
          <mxGeometry x="570" y="1520" width="150" height="170" as="geometry" />
        </mxCell>
        <mxCell id="7q0GkW7Tj6wg4lrRBr_C-55" value="" style="endArrow=classic;html=1;rounded=0;entryX=0;entryY=0.5;entryDx=0;entryDy=0;exitX=1;exitY=0.5;exitDx=0;exitDy=0;" edge="1" parent="1" source="7q0GkW7Tj6wg4lrRBr_C-48" target="7q0GkW7Tj6wg4lrRBr_C-54">
          <mxGeometry width="50" height="50" relative="1" as="geometry">
            <mxPoint x="240" y="1545" as="sourcePoint" />
            <mxPoint x="209" y="1601" as="targetPoint" />
          </mxGeometry>
        </mxCell>
        <mxCell id="7q0GkW7Tj6wg4lrRBr_C-56" value="&lt;div style=&quot;&quot;&gt;&lt;ul style=&quot;&quot;&gt;&lt;li style=&quot;&quot;&gt;&lt;span style=&quot;font-size: 17px; background-color: initial;&quot;&gt;孤独&lt;/span&gt;&lt;br&gt;&lt;/li&gt;&lt;li style=&quot;&quot;&gt;&lt;span style=&quot;font-size: 17px;&quot;&gt;性格&lt;/span&gt;&lt;/li&gt;&lt;li style=&quot;&quot;&gt;&lt;span style=&quot;font-size: 17px;&quot;&gt;情绪调节&lt;/span&gt;&lt;/li&gt;&lt;li style=&quot;&quot;&gt;&lt;span style=&quot;font-size: 17px;&quot;&gt;抗压能力&lt;/span&gt;&lt;/li&gt;&lt;li style=&quot;&quot;&gt;&lt;span style=&quot;font-size: 17px;&quot;&gt;...&lt;/span&gt;&lt;/li&gt;&lt;/ul&gt;&lt;/div&gt;" style="rounded=0;whiteSpace=wrap;html=1;align=left;" vertex="1" parent="1">
          <mxGeometry x="570" y="1320" width="150" height="140" as="geometry" />
        </mxCell>
        <mxCell id="7q0GkW7Tj6wg4lrRBr_C-57" value="" style="endArrow=classic;html=1;rounded=0;entryX=0;entryY=0.5;entryDx=0;entryDy=0;exitX=1;exitY=0.5;exitDx=0;exitDy=0;" edge="1" parent="1" source="7q0GkW7Tj6wg4lrRBr_C-49" target="7q0GkW7Tj6wg4lrRBr_C-56">
          <mxGeometry width="50" height="50" relative="1" as="geometry">
            <mxPoint x="541" y="1545" as="sourcePoint" />
            <mxPoint x="580" y="1615" as="targetPoint" />
          </mxGeometry>
        </mxCell>
        <mxCell id="7q0GkW7Tj6wg4lrRBr_C-58" value="&lt;div style=&quot;font-size: 17px;&quot;&gt;&lt;ul style=&quot;&quot;&gt;&lt;li style=&quot;&quot;&gt;空气质量&lt;/li&gt;&lt;li style=&quot;&quot;&gt;噪音&lt;/li&gt;&lt;li style=&quot;&quot;&gt;绿地&lt;/li&gt;&lt;li style=&quot;&quot;&gt;人口密度&lt;/li&gt;&lt;li style=&quot;&quot;&gt;社区环境&lt;/li&gt;&lt;li style=&quot;&quot;&gt;街道环境&lt;/li&gt;&lt;li style=&quot;&quot;&gt;...&lt;/li&gt;&lt;/ul&gt;&lt;/div&gt;" style="rounded=0;whiteSpace=wrap;html=1;align=left;" vertex="1" parent="1">
          <mxGeometry x="60" y="1310" width="140" height="150" as="geometry" />
        </mxCell>
        <mxCell id="7q0GkW7Tj6wg4lrRBr_C-59" value="" style="endArrow=classic;html=1;rounded=0;exitX=0;exitY=0.5;exitDx=0;exitDy=0;entryX=1;entryY=0.5;entryDx=0;entryDy=0;" edge="1" parent="1" source="7q0GkW7Tj6wg4lrRBr_C-51" target="7q0GkW7Tj6wg4lrRBr_C-58">
          <mxGeometry width="50" height="50" relative="1" as="geometry">
            <mxPoint x="541" y="1435" as="sourcePoint" />
            <mxPoint x="580" y="1400" as="targetPoint" />
          </mxGeometry>
        </mxCell>
      </root>
    </mxGraphModel>
  </diagram>
</mxfile>
